<?xml version="1.0" standalone="no"?>
<!DOCTYPE svg PUBLIC "-//W3C//DTD SVG 1.1//EN" "http://www.w3.org/Graphics/SVG/1.1/DTD/svg11.dtd" >
<svg xmlns="http://www.w3.org/2000/svg">
<metadata></metadata>
<defs>
<font id="nudistaregular" horiz-adv-x="1097" >
<font-face units-per-em="2048" ascent="1638" descent="-410" />
<missing-glyph horiz-adv-x="614" />
<glyph unicode="&#xfb01;" horiz-adv-x="1234" d="M41 907v137h225v93q0 67 5 117.5t18 98.5t36 80t59.5 57.5t87 36t119.5 9.5t157 -16v-131q-68 9 -117.5 10t-86 -8.5t-59 -26.5t-36 -48t-18.5 -69.5t-5 -93.5v-109h666v-1044h-160v907h-506v-907h-160v907h-225zM932 1219v231h160v-231h-160z" />
<glyph unicode="&#xfb02;" horiz-adv-x="1234" d="M41 907v137h225v91q0 65 6.5 114t24 98t51 82t85 60t129 40t179.5 13q127 0 351 -29v-1513h-160v1393q-102 12 -195 12q-94 0 -155 -15t-95 -48t-47.5 -78t-13.5 -113v-107h322v-137h-322v-907h-160v907h-225z" />
<glyph horiz-adv-x="2048" />
<glyph horiz-adv-x="2048" />
<glyph unicode="&#xd;" horiz-adv-x="2048" />
<glyph unicode=" "  horiz-adv-x="614" />
<glyph unicode="&#x09;" horiz-adv-x="614" />
<glyph unicode="&#xa0;" horiz-adv-x="614" />
<glyph unicode="!" horiz-adv-x="528" d="M184 0v231h160v-231h-160zM184 399v1035h160v-1035h-160z" />
<glyph unicode="&#x22;" horiz-adv-x="747" d="M143 1434h181l-21 -568h-139zM426 1434h178l-20 -568h-138z" />
<glyph unicode="#" horiz-adv-x="1497" d="M49 408v129h322l114 362h-272v127h313l131 408h142l-131 -408h360l131 408h139l-131 -408h281v-127h-322l-114 -362h272v-129h-313l-131 -408h-140l129 408h-360l-129 -408h-141l131 408h-281zM510 537h360l117 362h-360z" />
<glyph unicode="$" horiz-adv-x="1284" d="M123 412v18h170v-18q0 -140 90.5 -212.5t257.5 -72.5q170 0 260 64.5t90 193.5q0 189 -223 233l-276 52q-172 33 -264.5 128t-92.5 253q0 179 110 280.5t318 116.5v231h160v-229q208 -17 318 -124.5t110 -303.5v-18h-168v18q0 140 -87 212.5t-253 72.5t-253 -62.5 t-87 -183.5q0 -97 58.5 -156t164.5 -78l277 -53q358 -67 358 -379q0 -185 -114.5 -289t-323.5 -122v-230h-160v232q-211 15 -325.5 123t-114.5 303z" />
<glyph unicode="%" horiz-adv-x="1687" d="M143 918v280q0 118 72 182t197 64t196.5 -64t71.5 -182v-280q0 -120 -71.5 -184t-196.5 -64t-197 64t-72 184zM270 918q0 -66 38 -102t104 -36q68 0 105.5 36t37.5 102v280q0 66 -37.5 101.5t-105.5 35.5q-67 0 -104.5 -36t-37.5 -101v-280zM279 0l987 1434h143 l-987 -1434h-143zM1008 238v280q0 118 71.5 182t196.5 64t196.5 -64t71.5 -182v-280q0 -120 -71.5 -184t-196.5 -64t-196.5 64t-71.5 184zM1133 238q0 -66 37.5 -102t105.5 -36q66 0 103.5 36t37.5 102v280q0 66 -37.5 101.5t-103.5 35.5q-68 0 -105.5 -35.5t-37.5 -101.5 v-280z" />
<glyph unicode="&#x26;" horiz-adv-x="1331" d="M133 360q0 128 64 220.5t182 140.5q-225 92 -225 344q0 182 125.5 285.5t351.5 103.5t350.5 -104t124.5 -281v-45h-170v29q0 121 -79 187.5t-226 66.5q-146 0 -224.5 -67t-78.5 -189q0 -116 76 -187t212 -71h715v-148h-225v-645h-127l-27 152q-60 -81 -159 -126.5 t-228 -45.5q-199 0 -315.5 105.5t-116.5 274.5zM307 381q0 -123 75.5 -188.5t223.5 -65.5t239 77.5t91 198.5v242h-324q-139 0 -222 -71.5t-83 -192.5z" />
<glyph unicode="'" horiz-adv-x="466" d="M143 1434h181l-21 -568h-139z" />
<glyph unicode="(" horiz-adv-x="598" d="M113 715q0 557 323 948h162q-154 -192 -240 -432.5t-86 -515.5q0 -271 86.5 -512.5t239.5 -431.5h-162q-323 391 -323 944z" />
<glyph unicode=")" horiz-adv-x="598" d="M0 -229q154 192 240 433.5t86 516.5q0 271 -86.5 511.5t-239.5 430.5h162q323 -386 323 -942t-323 -950h-162z" />
<glyph unicode="*" horiz-adv-x="942" d="M61 1206l37 113l328 -123l-14 354h116l-12 -352l328 121l37 -111l-336 -96l217 -274l-94 -68l-197 293l-197 -293l-94 68l215 274z" />
<glyph unicode="+" horiz-adv-x="1048" d="M61 649v137h390v406h145v-406h391v-137h-391v-401h-145v401h-390z" />
<glyph unicode="," horiz-adv-x="466" d="M133 -236l21 488h180l-82 -488h-119z" />
<glyph unicode="-" horiz-adv-x="530" d="M61 455v137h408v-137h-408z" />
<glyph unicode="." horiz-adv-x="466" d="M143 0v252h181v-252h-181z" />
<glyph unicode="/" horiz-adv-x="636" d="M-66 -229l627 1892h141l-626 -1892h-142z" />
<glyph unicode="0" horiz-adv-x="1273" d="M143 436v561q0 219 131.5 338t364.5 119q230 0 360.5 -119t130.5 -338v-561q0 -219 -131 -337.5t-364 -118.5q-230 0 -361 118.5t-131 337.5zM313 436q0 -147 85 -228t237 -81q154 0 240 81t86 228v561q0 147 -85.5 228.5t-236.5 81.5q-154 0 -240 -81.5t-86 -228.5v-561 z" />
<glyph unicode="1" horiz-adv-x="763" d="M72 991v172l379 271h170v-1434h-170v1262z" />
<glyph unicode="2" horiz-adv-x="1232" d="M143 0v147l635 629q137 134 137 283q0 118 -80.5 183t-216.5 65q-146 0 -225.5 -71.5t-79.5 -209.5v-74h-170v74q0 209 125 318.5t350 109.5q213 0 340 -103t127 -288q0 -207 -190 -385l-530 -531h745v-147h-967z" />
<glyph unicode="3" horiz-adv-x="1232" d="M133 367v55h170v-39q0 -121 80.5 -188.5t228.5 -67.5q147 0 225 70t78 194q0 120 -80 187t-219 67h-104v148h104q138 0 213.5 69t75.5 182q0 123 -76.5 193t-220.5 70q-147 0 -226 -66.5t-79 -187.5v-39h-170v55q0 177 124.5 281t350.5 104q225 0 348 -105t123 -288 q0 -249 -227 -340q238 -83 238 -346q0 -184 -125 -289.5t-353 -105.5q-227 0 -353 104.5t-126 282.5z" />
<glyph unicode="4" horiz-adv-x="1150" d="M61 326v147l480 961h178l-486 -961h451v340h168v-340h238v-147h-238v-326h-168v326h-623z" />
<glyph unicode="5" horiz-adv-x="1232" d="M143 393v4h170v-12q0 -122 80.5 -190t222.5 -68q146 0 226 82.5t80 247.5q0 166 -79.5 248.5t-224.5 82.5q-220 0 -292 -163h-164l63 809h793v-148h-660l-43 -483q129 123 328 123q96 0 176.5 -28.5t141.5 -85t95 -148t34 -209.5q0 -230 -125.5 -352.5t-348.5 -122.5 q-221 0 -347 108t-126 305z" />
<glyph unicode="6" horiz-adv-x="1243" d="M143 422v614q0 195 125 306.5t355 111.5q227 0 352 -105t125 -286v-33h-168v19q0 122 -80.5 190t-228.5 68q-147 0 -228.5 -71t-81.5 -200v-311q120 139 342 139q206 0 325.5 -118t119.5 -324q0 -204 -128 -323t-349 -119q-222 0 -351 119t-129 323zM313 426 q0 -139 82.5 -219t227.5 -80q144 0 226.5 80t82.5 219q0 143 -80 222t-229 79q-146 0 -228 -80.5t-82 -220.5z" />
<glyph unicode="7" horiz-adv-x="1110" d="M72 1286v148h966v-127l-608 -1307h-186l618 1286h-790z" />
<glyph unicode="8" horiz-adv-x="1243" d="M123 379q0 125 60.5 216.5t174.5 137.5q-98 46 -151 132.5t-53 201.5q0 179 124 283t343 104q223 0 346 -103t123 -284q0 -114 -53 -200.5t-152 -133.5q115 -44 175 -135.5t60 -218.5q0 -185 -129 -293.5t-368 -108.5q-240 0 -370 107.5t-130 294.5zM293 393 q0 -124 86 -195t244 -71q157 0 243 71.5t86 194.5q0 125 -86 195.5t-245 70.5q-157 0 -242.5 -71t-85.5 -195zM324 1053q0 -119 78.5 -186.5t220.5 -67.5q141 0 220 68t79 186q0 119 -78.5 186.5t-222.5 67.5q-140 0 -218.5 -68t-78.5 -186z" />
<glyph unicode="9" horiz-adv-x="1243" d="M143 371v32h170v-16q0 -122 81 -191t229 -69q145 0 227 71.5t82 198.5v314q-121 -140 -342 -140q-206 0 -326.5 118.5t-120.5 324.5q0 203 129 321.5t351 118.5q221 0 349 -118.5t128 -321.5v-617q0 -193 -124.5 -305t-352.5 -112q-227 0 -353.5 105.5t-126.5 285.5z M313 1008q0 -143 80.5 -221t229.5 -78q144 0 226.5 80t82.5 219t-82.5 219t-226.5 80q-145 0 -227.5 -80t-82.5 -219z" />
<glyph unicode=":" horiz-adv-x="466" d="M143 0v252h181v-252h-181zM143 815v250h181v-250h-181z" />
<glyph unicode=";" horiz-adv-x="466" d="M133 -236l21 488h180l-82 -488h-119zM143 815v250h181v-250h-181z" />
<glyph unicode="&#x3c;" horiz-adv-x="1048" d="M61 649v139l926 363v-152l-754 -280l754 -279v-153z" />
<glyph unicode="=" horiz-adv-x="1048" d="M61 393v137h926v-137h-926zM61 905v137h926v-137h-926z" />
<glyph unicode="&#x3e;" horiz-adv-x="1048" d="M61 287v153l754 279l-754 280v152l926 -363v-139z" />
<glyph unicode="?" horiz-adv-x="1284" d="M143 1004v49q0 186 134 293.5t364 107.5q232 0 366 -107.5t134 -293.5q0 -171 -112 -276t-308 -122v-256h-160v387h80q159 0 249.5 71.5t90.5 195.5q0 123 -90.5 193.5t-249.5 70.5q-158 0 -248 -70.5t-90 -193.5v-49h-160zM561 0v231h160v-231h-160z" />
<glyph unicode="@" horiz-adv-x="2127" d="M102 315q0 201 57 380.5t161 316.5t244 237.5t310.5 152.5t356.5 52q372 0 583 -196.5t211 -536.5q0 -191 -59.5 -355.5t-168.5 -265t-243 -100.5q-92 0 -156.5 39.5t-88.5 116.5q-129 -176 -375 -176q-182 0 -270 111.5t-54 301.5l49 283q34 189 149 289t296 100 q111 0 192.5 -38.5t122.5 -111.5l45 129h123l-131 -751q-13 -74 18 -116t95 -42q88 0 161 94t110.5 227t37.5 265q0 278 -173 439t-474 161q-203 0 -382.5 -72.5t-312 -201.5t-209.5 -318.5t-77 -411.5q0 -280 172 -441t477 -161q244 0 457 109l51 -129q-239 -115 -508 -115 q-373 0 -585 197t-212 538zM766 383q-22 -120 38 -193t177 -73q128 0 219.5 74.5t114.5 201.5l47 271q21 120 -48.5 192t-197.5 72q-124 0 -199.5 -62t-97.5 -180z" />
<glyph unicode="A" horiz-adv-x="1265" d="M0 0l530 1434h207l529 -1434h-183l-135 369h-645l-135 -369h-168zM348 516h553l-276 737z" />
<glyph unicode="B" horiz-adv-x="1263" d="M143 0v1434h607q192 0 296.5 -96t104.5 -281q0 -238 -180 -330q102 -39 156.5 -127.5t54.5 -220.5q0 -186 -104.5 -282.5t-297.5 -96.5h-637zM313 147h439q127 0 191.5 63t64.5 185q0 123 -64 186.5t-190 63.5h-441v-498zM313 793h408q256 0 256 247q0 121 -64.5 183.5 t-189.5 62.5h-410v-493z" />
<glyph unicode="C" horiz-adv-x="1325" d="M123 494v446q0 246 147 380t406 134q250 0 393 -124t143 -349v-8h-170v8q0 153 -97.5 239.5t-268.5 86.5q-181 0 -282 -96.5t-101 -270.5v-446q0 -174 101 -270.5t280 -96.5q172 0 270 86.5t98 241.5v6h170v-6q0 -225 -143.5 -350t-394.5 -125q-258 0 -404.5 134.5 t-146.5 379.5z" />
<glyph unicode="D" horiz-adv-x="1345" d="M143 0v1434h516q259 0 406 -132t147 -374v-420q0 -244 -147.5 -376t-409.5 -132h-512zM313 147h342q183 0 285 95t102 266v420q0 171 -101 264.5t-282 93.5h-346v-1139z" />
<glyph unicode="E" horiz-adv-x="1150" d="M143 0v1434h926v-148h-756v-493h654v-148h-654v-498h756v-147h-926z" />
<glyph unicode="F" horiz-adv-x="1028" d="M143 0v1434h885v-148h-715v-534h613v-148h-613v-604h-170z" />
<glyph unicode="G" horiz-adv-x="1339" d="M123 494v442q0 251 146.5 384.5t406.5 133.5q250 0 393 -114t143 -332v-15h-170v15q0 142 -97.5 220.5t-268.5 78.5q-182 0 -282.5 -95t-100.5 -276v-442q0 -174 101 -270.5t280 -96.5q172 0 270 86.5t98 241.5v127h-450v147h620v-729h-127l-20 150q-132 -170 -420 -170 q-248 0 -385 133t-137 381z" />
<glyph unicode="H" horiz-adv-x="1355" d="M143 0v1434h170v-641h729v641h170v-1434h-170v645h-729v-645h-170z" />
<glyph unicode="I" horiz-adv-x="456" d="M143 0v1434h170v-1434h-170z" />
<glyph unicode="J" horiz-adv-x="1191" d="M41 446v21h170v-21q0 -153 88 -236t244 -83q159 0 247.5 83t88.5 236v988h170v-988q0 -223 -134.5 -344.5t-371.5 -121.5q-235 0 -368.5 121.5t-133.5 344.5z" />
<glyph unicode="K" horiz-adv-x="1183" d="M143 0v1434h170v-709l633 709h207l-559 -625l600 -809h-207l-504 678l-170 -189v-489h-170z" />
<glyph unicode="L" horiz-adv-x="1110" d="M143 0v1434h170v-1287h756v-147h-926z" />
<glyph unicode="M" horiz-adv-x="1519" d="M143 0v1434h164l453 -848l452 848h164v-1434h-168v1100l-448 -838l-447 838v-1100h-170z" />
<glyph unicode="N" horiz-adv-x="1355" d="M143 0v1434h160l739 -1123v1123h170v-1434h-159l-740 1124v-1124h-170z" />
<glyph unicode="O" horiz-adv-x="1355" d="M123 494v446q0 247 147.5 380.5t409.5 133.5q259 0 406 -134t147 -380v-446q0 -246 -147.5 -380t-409.5 -134q-259 0 -406 134.5t-147 379.5zM293 494q0 -174 101 -270.5t282 -96.5q183 0 285 96.5t102 270.5v446q0 174 -101 270.5t-282 96.5q-183 0 -285 -96.5 t-102 -270.5v-446z" />
<glyph unicode="P" horiz-adv-x="1202" d="M143 0v1434h539q216 0 337.5 -110.5t121.5 -334.5q0 -225 -121 -335.5t-338 -110.5h-369v-543h-170zM313 690h365q137 0 213 73t76 226q0 151 -76.5 224t-212.5 73h-365v-596z" />
<glyph unicode="Q" horiz-adv-x="1335" d="M123 494v446q0 247 147.5 380.5t409.5 133.5q259 0 406 -134t147 -380v-446q0 -191 -91 -316.5t-257 -171.5l305 -297l-121 -119l-389 390h-4q-259 0 -406 134.5t-147 379.5zM293 494q0 -174 101 -270.5t282 -96.5q183 0 285 96.5t102 270.5v446q0 174 -101 270.5 t-282 96.5q-183 0 -285 -96.5t-102 -270.5v-446z" />
<glyph unicode="R" horiz-adv-x="1273" d="M143 0v1434h570q216 0 337 -110.5t121 -334.5q0 -335 -268 -420l279 -569h-197l-256 543h-416v-543h-170zM313 690h396q137 0 212.5 73t75.5 226q0 151 -76 224t-212 73h-396v-596z" />
<glyph unicode="S" horiz-adv-x="1284" d="M123 412v18h170v-18q0 -140 90.5 -212.5t257.5 -72.5q169 0 257.5 64.5t88.5 193.5q0 189 -223 233l-272 52q-172 33 -264.5 128t-92.5 253q0 197 131.5 300t376.5 103q246 0 377 -109t131 -323v-18h-168v18q0 140 -87 212.5t-253 72.5q-334 0 -334 -246q0 -97 58.5 -156 t164.5 -80l271 -51q358 -67 358 -379q0 -204 -136 -309.5t-384 -105.5q-247 0 -382.5 110t-135.5 322z" />
<glyph unicode="T" horiz-adv-x="1157" d="M20 1286v148h1117v-148h-473v-1286h-170v1286h-474z" />
<glyph unicode="U" horiz-adv-x="1345" d="M139 475v959h168v-959q0 -165 97 -256.5t268 -91.5q172 0 269 91.5t97 256.5v959h168v-959q0 -237 -141.5 -366t-392.5 -129q-250 0 -391.5 129t-141.5 366z" />
<glyph unicode="V" horiz-adv-x="1255" d="M0 1434h184l451 -1225l452 1225h168l-528 -1434h-197z" />
<glyph unicode="W" horiz-adv-x="1761" d="M-6 1434h174l315 -1217l318 1217h164l317 -1217l315 1217h168l-385 -1434h-192l-307 1126l-308 -1126h-192z" />
<glyph unicode="X" horiz-adv-x="1232" d="M41 0l477 713l-477 721h203l374 -578l381 578h193l-477 -713l477 -721h-203l-377 578l-379 -578h-192z" />
<glyph unicode="Y" horiz-adv-x="1232" d="M-2 1434h203l417 -715l422 715h193l-533 -885v-549h-168v549z" />
<glyph unicode="Z" horiz-adv-x="1181" d="M72 0v147l837 1139h-837v148h1038v-148l-838 -1139h838v-147h-1038z" />
<glyph unicode="[" horiz-adv-x="608" d="M143 -229v1892h424v-147h-254v-1598h254v-147h-424z" />
<glyph unicode="\" horiz-adv-x="636" d="M-66 1663h142l626 -1892h-139z" />
<glyph unicode="]" horiz-adv-x="608" d="M41 -82h256v1598h-256v147h424v-1892h-424v147z" />
<glyph unicode="^" horiz-adv-x="1042" d="M61 766l377 963h166l377 -963h-168l-295 795l-297 -795h-160z" />
<glyph unicode="_" horiz-adv-x="1044" d="M10 -20h1024v-117h-1024v117z" />
<glyph unicode="`" horiz-adv-x="454" d="M41 1516h166l207 -328h-127z" />
<glyph unicode="a" horiz-adv-x="1083" d="M82 295q0 157 102.5 236t284.5 79q213 0 317 -104v201q0 112 -65.5 169.5t-183.5 57.5q-123 0 -183.5 -48.5t-60.5 -154.5h-160q0 167 104 250.5t300 83.5q191 0 299 -93.5t108 -275.5v-696h-123l-18 111q-104 -131 -336 -131q-180 0 -282.5 79t-102.5 236zM242 301 q0 -184 266 -184q127 0 202.5 47.5t75.5 136.5q0 87 -76 134.5t-202 47.5q-266 0 -266 -182z" />
<glyph unicode="b" horiz-adv-x="1124" d="M143 0v1516h160v-582q107 131 311 131q183 0 287.5 -101.5t104.5 -289.5v-301q0 -188 -105 -290.5t-287 -102.5q-221 0 -327 143l-21 -123h-123zM303 373q0 -121 74.5 -188.5t202.5 -67.5q126 0 197 64t71 181v322q0 117 -70.5 180.5t-195.5 63.5q-129 0 -204 -67 t-75 -187v-301z" />
<glyph unicode="c" horiz-adv-x="1077" d="M119 375v295q0 190 115.5 292.5t320.5 102.5q198 0 312 -97.5t114 -273.5v-2h-160v13q0 104 -71 163.5t-195 59.5q-132 0 -205.5 -64.5t-73.5 -183.5v-315q0 -118 73.5 -183t203.5 -65q126 0 197 60t71 165v12h160v-2q0 -176 -114.5 -274t-313.5 -98q-203 0 -318.5 103 t-115.5 292z" />
<glyph unicode="d" horiz-adv-x="1124" d="M119 373v301q0 188 104 289.5t287 101.5q204 0 311 -125v576h160v-1516h-123l-22 123q-103 -143 -326 -143q-182 0 -286.5 102.5t-104.5 290.5zM276 362q0 -117 71.5 -181t197.5 -64q128 0 202 67t74 189v301q0 120 -74.5 187t-203.5 67q-125 0 -196 -63.5t-71 -180.5 v-322z" />
<glyph unicode="e" d="M119 375v299q0 190 115.5 290.5t316.5 100.5q198 0 314 -101t116 -290v-197h-705v-112q0 -116 72.5 -182t204.5 -66q125 0 193.5 56.5t74.5 150.5h158q-9 -164 -121 -254t-305 -90q-202 0 -318 103t-116 292zM276 604h545v80q0 119 -72 181.5t-198 62.5 q-128 0 -201.5 -62.5t-73.5 -181.5v-80z" />
<glyph unicode="f" horiz-adv-x="747" d="M41 907v137h225v93q0 67 5 117.5t18 98.5t36 80t59.5 57.5t87.5 35.5q46 10 107 10h12q69 -1 157 -16v-131q-68 9 -118 10h-9q-43 0 -77 -9q-36 -9 -58.5 -26t-36 -48t-18.5 -69.5t-5 -93.5v-109h322v-137h-322v-907h-160v907h-225z" />
<glyph unicode="g" horiz-adv-x="1124" d="M119 -57h157v-13q0 -104 71.5 -163.5t197.5 -59.5q131 0 203.5 64.5t72.5 183.5v195q-108 -130 -311 -130q-182 0 -286.5 103t-104.5 291v260q0 188 104 289.5t287 101.5q108 0 192.5 -36.5t135.5 -106.5l20 122h123v-1079q0 -190 -115.5 -292.5t-320.5 -102.5 q-198 0 -312 97.5t-114 273.5v2zM276 403q0 -117 71.5 -181t197.5 -64q128 0 202 67t74 189v260q0 120 -74.5 187t-203.5 67q-125 0 -196 -63.5t-71 -180.5v-281z" />
<glyph unicode="h" horiz-adv-x="1144" d="M143 0v1516h160v-572q106 121 311 121q185 0 288.5 -96t103.5 -285v-684h-158v694q0 118 -69.5 176t-196.5 58t-203 -63t-76 -181v-684h-160z" />
<glyph unicode="i" horiz-adv-x="446" d="M143 0v1044h160v-1044h-160zM143 1249v232h160v-232h-160z" />
<glyph unicode="j" horiz-adv-x="487" d="M-47 -274q50 -10 88 -10q64 0 94 28q49 44 49 176v1124h160v-1107q0 -57 -4.5 -102.5t-16.5 -88t-31 -72.5t-49 -53.5t-71 -33.5q-36 -9 -86 -9h-10q-55 1 -123 16v132zM184 1249v232h160v-232h-160z" />
<glyph unicode="k" horiz-adv-x="991" d="M143 0v1516h160v-1004l473 532h193l-398 -446l443 -598h-195l-350 475l-166 -182v-293h-160z" />
<glyph unicode="l" horiz-adv-x="446" d="M143 0v1516h160v-1516h-160z" />
<glyph unicode="m" horiz-adv-x="1654" d="M143 0v1044h123l19 -108q92 129 282 129q222 0 301 -162q44 79 123 120.5t183 41.5q163 0 253.5 -90t90.5 -270v-705h-160v707q0 221 -219 221q-102 0 -164.5 -57t-65.5 -164v-707h-157v707q0 221 -220 221q-105 0 -167 -59t-62 -173v-696h-160z" />
<glyph unicode="n" horiz-adv-x="1144" d="M143 0v1044h123l21 -118q106 139 327 139q185 0 288.5 -96t103.5 -285v-684h-158v694q0 118 -69.5 176t-196.5 58t-203 -63t-76 -181v-684h-160z" />
<glyph unicode="o" d="M119 373v301q0 190 115.5 290.5t316.5 100.5q198 0 314 -101t116 -290v-301q0 -191 -116 -292t-316 -101t-315 101t-115 292zM276 362q0 -120 73 -182.5t200 -62.5q128 0 200 62.5t72 182.5v322q0 119 -72 181.5t-198 62.5q-128 0 -201.5 -62.5t-73.5 -181.5v-322z" />
<glyph unicode="p" horiz-adv-x="1124" d="M143 -410v1454h123l21 -122q109 143 327 143q183 0 287.5 -101.5t104.5 -289.5v-301q0 -188 -105 -290.5t-287 -102.5q-208 0 -311 118v-508h-160zM303 373q0 -121 74.5 -188.5t202.5 -67.5q126 0 197 64t71 181v322q0 117 -70.5 180.5t-195.5 63.5q-129 0 -204 -67 t-75 -187v-301z" />
<glyph unicode="q" horiz-adv-x="1124" d="M119 373v301q0 188 104 289.5t287 101.5q108 0 192.5 -36.5t135.5 -106.5l20 122h123v-1454h-160v519q-107 -129 -311 -129q-182 0 -286.5 102.5t-104.5 290.5zM276 362q0 -117 71.5 -181t197.5 -64q128 0 202 67t74 189v301q0 120 -74.5 187t-203.5 67 q-125 0 -196 -63.5t-71 -180.5v-322z" />
<glyph unicode="r" horiz-adv-x="727" d="M143 0v1044h123l23 -131q68 91 183 129q66 21 133 21q50 0 102 -12v-144q-62 11 -115 11q-104 0 -178 -42q-112 -64 -111 -192v-684h-160z" />
<glyph unicode="s" horiz-adv-x="1067" d="M109 299v16h157v-12q0 -95 69.5 -142.5t199.5 -47.5q128 0 197 43t69 127q0 125 -168 155l-217 43q-137 27 -212 98.5t-75 188.5q0 147 103.5 222t304.5 75q199 0 301 -79.5t102 -237.5v-17h-160v10q0 98 -59 145.5t-184 47.5q-250 0 -250 -162q0 -64 40.5 -102.5 t125.5 -55.5l219 -43q138 -27 213.5 -98t75.5 -186q0 -151 -111.5 -229t-314.5 -78t-314.5 81t-111.5 238z" />
<glyph unicode="t" horiz-adv-x="808" d="M41 907v137h205v349l160 47v-396h321v-137h-321v-538q0 -56 5 -94t18.5 -69t36 -48.5t58.5 -27.5q34 -9 81 -8h5q50 0 117 9v-131q-88 -15 -157 -16h-12q-62 0 -108 10q-50 10 -86 35.5t-59 57.5t-36 80t-18 98.5t-5 117.5v524h-205z" />
<glyph unicode="u" horiz-adv-x="1144" d="M139 362v682h160v-692q0 -120 69.5 -177.5t196.5 -57.5t203 63t76 182v682h157v-1044h-122l-21 119q-106 -139 -328 -139q-185 0 -288 96t-103 286z" />
<glyph unicode="v" horiz-adv-x="1087" d="M41 1044h170l338 -866l338 866h160l-408 -1044h-190z" />
<glyph unicode="w" horiz-adv-x="1613" d="M41 1044h164l266 -849l262 849h158l262 -849l266 849h154l-332 -1044h-178l-256 805l-256 -805h-178z" />
<glyph unicode="x" horiz-adv-x="1028" d="M41 0l381 518l-381 526h188l289 -403l291 403h178l-381 -518l381 -526h-188l-289 403l-291 -403h-178z" />
<glyph unicode="y" horiz-adv-x="1087" d="M41 1044h170l338 -868l338 868h160l-570 -1454h-170l162 410h-20z" />
<glyph unicode="z" horiz-adv-x="995" d="M82 0v137l635 770h-635v137h831v-137l-634 -770h634v-137h-831z" />
<glyph unicode="{" horiz-adv-x="690" d="M0 643v148h66q73 0 116 45.5t43 119.5v402q0 138 83.5 221.5t219.5 83.5h121v-147h-90q-75 0 -120.5 -44.5t-45.5 -119.5v-357q0 -100 -46.5 -172.5t-127.5 -105.5q80 -31 127 -104.5t47 -172.5v-356q0 -76 45.5 -121t120.5 -45h90v-147h-121q-135 0 -219 84.5t-84 220.5 v403q0 74 -43 119t-116 45h-66z" />
<glyph unicode="|" horiz-adv-x="430" d="M143 -276v1986h144v-1986h-144z" />
<glyph unicode="}" horiz-adv-x="690" d="M41 -82h90q75 0 120.5 45t45.5 121v356q0 99 47 172.5t127 104.5q-81 33 -127.5 105.5t-46.5 172.5v357q0 75 -45.5 119.5t-120.5 44.5h-90v147h121q135 0 219 -84.5t84 -220.5v-402q0 -75 43.5 -120t116.5 -45h65v-148h-65q-73 0 -116.5 -45t-43.5 -119v-403 q0 -138 -83.5 -221.5t-219.5 -83.5h-121v147z" />
<glyph unicode="~" horiz-adv-x="1048" d="M86 670q60 107 118.5 148.5t123.5 41.5q49 0 107 -25t102 -55t94.5 -55t87.5 -25q78 0 158 125l88 -55q-60 -107 -118.5 -148.5t-123.5 -41.5q-49 0 -109 25t-105.5 54.5t-97.5 54.5t-89 25q-68 0 -148 -125z" />
<glyph unicode="&#xa1;" horiz-adv-x="528" d="M184 -389v1034h160v-1034h-160zM184 815v229h160v-229h-160z" />
<glyph unicode="&#xa2;" horiz-adv-x="1118" d="M102 743v316q0 169 100.5 269.5t282.5 119.5v231h158v-231q176 -19 274.5 -114t98.5 -251v-2h-158v13q0 104 -78 163.5t-215 59.5q-144 0 -223.5 -64.5t-79.5 -183.5v-336q0 -118 79.5 -183t221.5 -65q138 0 216.5 60.5t78.5 165.5v12h158v-2q0 -158 -99 -254t-274 -111 v-233h-158v233q-181 15 -282 115.5t-101 271.5z" />
<glyph unicode="&#xa3;" horiz-adv-x="1286" d="M61 0v147h222v500h-222v127h222v281q0 192 119.5 295.5t330.5 103.5q203 0 320.5 -99.5t117.5 -277.5v-73h-170v73q0 106 -71.5 168t-196.5 62q-132 0 -206 -66t-74 -186v-281h430v-127h-430v-500h731v-147h-1123z" />
<glyph unicode="&#xa4;" horiz-adv-x="1304" d="M20 188l203 203q-102 136 -102 328q0 191 104 330l-196 198l96 96l197 -198q134 106 329 106q194 0 328 -106l207 207l98 -97l-207 -206q107 -138 107 -330q0 -195 -107 -330l199 -196l-96 -97l-199 197q-140 -105 -330 -105q-198 0 -329 107l-203 -203zM279 719 q0 -173 104 -283t268 -110t268.5 110t104.5 283q0 175 -104.5 285t-268.5 110t-268 -110t-104 -285z" />
<glyph unicode="&#xa5;" horiz-adv-x="1253" d="M10 1434h201l418 -715l422 715h192l-459 -760h314v-127h-387v-547h-168v547h-387v127h311z" />
<glyph unicode="&#xa6;" horiz-adv-x="430" d="M143 -276v749h144v-749h-144zM143 961v749h144v-749h-144z" />
<glyph unicode="&#xa7;" horiz-adv-x="1271" d="M123 526q0 175 125 285q-125 86 -125 260q0 183 133 283t377 100q246 0 377 -109t131 -323v-18h-170v18q0 141 -86 213t-252 72q-165 0 -250.5 -59.5t-85.5 -166.5q0 -93 54.5 -135t168.5 -63l273 -52q179 -34 267.5 -111.5t88.5 -221.5q0 -172 -125 -285 q125 -86 125 -260q0 -183 -132.5 -283t-375.5 -100q-246 0 -377 109t-131 323v18h168v-18q0 -140 87 -212.5t253 -72.5q163 0 248.5 59.5t85.5 166.5q0 49 -15 83.5t-46 56.5t-68.5 35.5t-93.5 24.5l-271 52q-180 34 -269 110.5t-89 220.5zM297 553q0 -91 56.5 -137 t168.5 -68l273 -51q23 -4 96 -23q84 81 84 197q0 91 -56.5 137t-168.5 68l-271 51q-57 10 -98 23q-84 -81 -84 -197z" />
<glyph unicode="&#xa8;" horiz-adv-x="661" d="M41 1239v221h139v-221h-139zM461 1239v221h139v-221h-139z" />
<glyph unicode="&#xa9;" horiz-adv-x="1802" d="M164 717q0 221 91 388t258 258t388 91t388 -91t258 -258t91 -388t-91 -388t-258 -258t-388 -91t-388 91t-258 258t-91 388zM276 717q0 -288 171 -461.5t454 -173.5q284 0 454.5 173t170.5 462q0 290 -170.5 463.5t-454.5 173.5q-283 0 -454 -173.5t-171 -463.5zM557 590 v256q0 148 92 227.5t256 79.5q158 0 249 -76t91 -213v-16h-112v16q0 92 -60 141.5t-168 49.5q-114 0 -174.5 -53.5t-60.5 -155.5v-256q0 -102 60 -155.5t173 -53.5q109 0 169.5 49t60.5 141v27h112v-27q0 -137 -91.5 -213.5t-250.5 -76.5q-163 0 -254.5 80.5t-91.5 228.5z " />
<glyph unicode="&#xaa;" horiz-adv-x="737" d="M92 973q0 99 62.5 150t171.5 51q125 0 192 -70v123q0 125 -135 125q-131 0 -131 -111h-127q0 105 66.5 159t193.5 54q122 0 191 -59.5t69 -175.5v-435h-96l-21 72q-63 -84 -202 -84q-109 0 -171.5 51t-62.5 150zM219 977q0 -103 148 -103q65 0 106 25t45 68v18 q-4 44 -45 69t-106 25q-148 0 -148 -102z" />
<glyph unicode="&#xab;" horiz-adv-x="892" d="M41 463v139l424 328v-162l-287 -236l287 -231v-166zM408 463v139l423 328v-162l-288 -236l288 -231v-166z" />
<glyph unicode="&#xac;" horiz-adv-x="1048" d="M61 649v137h926v-538h-143v401h-783z" />
<glyph unicode="&#xad;" horiz-adv-x="530" d="M61 455v137h408v-137h-408z" />
<glyph unicode="&#xae;" horiz-adv-x="749" d="M61 1120q0 142 85.5 228t228.5 86q142 0 227.5 -85.5t85.5 -228.5q0 -142 -85 -227.5t-228 -85.5t-228.5 85.5t-85.5 227.5zM115 1120q0 -121 70.5 -192.5t189.5 -71.5t189.5 71.5t70.5 192.5t-70.5 193.5t-189.5 72.5t-189.5 -72.5t-70.5 -193.5zM244 940v360h153 q117 0 117 -112q0 -92 -72 -111l70 -137h-68l-65 131h-76v-131h-59zM303 1124h92q60 0 60 62q0 61 -60 61h-92v-123z" />
<glyph unicode="&#xaf;" horiz-adv-x="638" d="M41 1268v116h557v-116h-557z" />
<glyph unicode="&#xb0;" horiz-adv-x="661" d="M51 1176q0 123 78.5 200.5t202.5 77.5q123 0 200.5 -77.5t77.5 -200.5q0 -124 -77.5 -202.5t-200.5 -78.5q-124 0 -202.5 78.5t-78.5 202.5zM158 1176q0 -78 48.5 -126.5t125.5 -48.5t124.5 48.5t47.5 126.5q0 77 -48 125.5t-124 48.5t-125 -49t-49 -125z" />
<glyph unicode="&#xb1;" horiz-adv-x="1048" d="M61 0v137h926v-137h-926zM61 711v137h390v405h145v-405h391v-137h-391v-402h-145v402h-390z" />
<glyph unicode="&#xb2;" horiz-adv-x="792" d="M143 680v111l324 305q65 62 65 129q0 52 -35 81t-94 29q-62 0 -97.5 -32t-35.5 -93v-32h-127v32q0 114 68.5 174t189.5 60q118 0 187 -56.5t69 -154.5q0 -131 -118 -221l-232 -221h359v-111h-523z" />
<glyph unicode="&#xb3;" horiz-adv-x="796" d="M133 879v36h123v-22q0 -53 35.5 -83t99.5 -30t98.5 31t34.5 84q0 55 -35 86t-100 31h-41v92h41q64 0 97.5 32t33.5 85t-34.5 83.5t-96.5 30.5q-64 0 -98.5 -30t-34.5 -84v-21h-123v35q0 96 68 152.5t192 56.5q122 0 189 -56.5t67 -152.5q0 -131 -125 -176 q129 -46 129 -180q0 -96 -67 -152.5t-191 -56.5t-193 57t-69 152z" />
<glyph unicode="&#xb4;" horiz-adv-x="454" d="M41 1188l207 328h168l-246 -328h-129z" />
<glyph unicode="&#xb6;" horiz-adv-x="1077" d="M61 1102q0 167 91.5 249.5t253.5 82.5h528v-1434h-150v1286h-127v-1286h-149v766h-102q-163 0 -254 83.5t-91 252.5z" />
<glyph unicode="&#xb7;" horiz-adv-x="466" d="M143 592v252h181v-252h-181z" />
<glyph unicode="&#xb8;" horiz-adv-x="440" d="M41 -184l25 92q153 21 243 -19t90 -139q0 -100 -90 -140t-243 -18l-25 95q106 -14 163.5 -0.5t57.5 65.5q0 51 -57.5 64.5t-163.5 -0.5z" />
<glyph unicode="&#xb9;" horiz-adv-x="534" d="M72 1167v127l192 140h127v-754h-127v627z" />
<glyph unicode="&#xba;" horiz-adv-x="737" d="M92 1024v178q0 123 74.5 187.5t202.5 64.5q129 0 202.5 -64.5t73.5 -187.5v-178q0 -123 -73.5 -187.5t-202.5 -64.5q-128 0 -202.5 64.5t-74.5 187.5zM219 1018q0 -65 40.5 -100t109.5 -35t109 35t40 100v190q0 66 -40 100.5t-109 34.5t-109.5 -34.5t-40.5 -100.5v-190z " />
<glyph unicode="&#xbb;" horiz-adv-x="892" d="M61 135v164l289 233l-289 234v164l424 -328v-139zM428 135v164l287 233l-287 234v164l424 -328v-139z" />
<glyph unicode="&#xbc;" horiz-adv-x="1585" d="M104 1167v125l193 142h127v-754h-127v625zM221 0l987 1434h142l-988 -1434h-141zM932 156v108l235 490h131l-241 -490h207v162h120v-162h107v-108h-107v-156h-120v156h-332z" />
<glyph unicode="&#xbd;" horiz-adv-x="1632" d="M104 1167v125l193 142h127v-754h-127v625zM221 0l987 1434h142l-988 -1434h-141zM989 2v109l324 305q65 65 65 131q0 51 -35.5 79.5t-95.5 28.5q-62 0 -97.5 -32t-35.5 -93v-30h-125v30q0 115 68.5 175.5t189.5 60.5q117 0 186.5 -57t69.5 -156q0 -125 -121 -221 l-229 -221h356v-109h-520z" />
<glyph unicode="&#xbe;" horiz-adv-x="1660" d="M133 879v36h123v-22q0 -53 35.5 -83t99.5 -30t98.5 31t34.5 84q0 55 -35 86t-100 31h-41v92h41q64 0 97.5 32t33.5 85t-34.5 83.5t-96.5 30.5q-64 0 -98.5 -30t-34.5 -84v-21h-123v35q0 96 68 152.5t192 56.5q122 0 189 -56.5t67 -152.5q0 -131 -125 -176 q129 -46 129 -180q0 -96 -67 -152.5t-191 -56.5t-193 57t-69 152zM297 0l987 1434h141l-987 -1434h-141zM1018 156v108l235 490h131l-241 -490h196v162h121v-162h107v-108h-107v-156h-121v156h-321z" />
<glyph unicode="&#xbf;" horiz-adv-x="1284" d="M143 14q0 169 112 274t308 122v256h160v-387h-80q-159 0 -249.5 -71t-90.5 -194q0 -125 90 -195.5t250 -70.5q158 0 248 70.5t90 195.5v47h160v-47q0 -187 -133.5 -295t-364.5 -108q-232 0 -366 108t-134 295zM563 836v229h160v-229h-160z" />
<glyph unicode="&#xc0;" horiz-adv-x="1265" d="M0 0l530 1434h207l529 -1434h-183l-135 369h-645l-135 -369h-168zM348 516h553l-276 737zM391 1812h176l187 -296h-138z" />
<glyph unicode="&#xc1;" horiz-adv-x="1265" d="M0 0l530 1434h207l529 -1434h-183l-135 369h-645l-135 -369h-168zM348 516h553l-276 737zM512 1516l188 296h177l-226 -296h-139z" />
<glyph unicode="&#xc2;" horiz-adv-x="1265" d="M0 0l530 1434h207l529 -1434h-183l-135 369h-645l-135 -369h-168zM313 1516l232 296h176l231 -296h-149l-172 202l-172 -202h-146zM348 516h553l-276 737z" />
<glyph unicode="&#xc3;" horiz-adv-x="1265" d="M0 0l530 1434h207l529 -1434h-183l-135 369h-645l-135 -369h-168zM256 1604q58 112 112 157t113 45q41 0 89 -24t83.5 -52.5t74 -52.5t63.5 -24q51 0 129 137l88 -53q-102 -203 -222 -203q-42 0 -90.5 24t-83.5 52t-73 52t-62 24q-30 0 -60 -31t-71 -105zM348 516h553 l-276 737z" />
<glyph unicode="&#xc4;" horiz-adv-x="1265" d="M0 0l530 1434h207l529 -1434h-183l-135 369h-645l-135 -369h-168zM324 1552v220h139v-220h-139zM348 516h553l-276 737zM805 1552v220h139v-220h-139z" />
<glyph unicode="&#xc5;" horiz-adv-x="1265" d="M0 0l530 1434h207l529 -1434h-183l-135 369h-645l-135 -369h-168zM348 516h553l-276 737zM426 1667q0 88 57.5 142.5t149.5 54.5t150.5 -54.5t58.5 -142.5t-58.5 -142.5t-150.5 -54.5t-149.5 54.5t-57.5 142.5zM528 1667q0 -53 28 -83t77 -30t76.5 30t27.5 83t-27.5 83 t-76.5 30t-77 -30t-28 -83z" />
<glyph unicode="&#xc6;" horiz-adv-x="2084" d="M0 0l983 1434h1020v-148h-756v-493h654v-148h-654v-498h756v-147h-926v369h-631l-256 -369h-190zM526 516h551v782z" />
<glyph unicode="&#xc7;" horiz-adv-x="1325" d="M123 494v446q0 246 147 380t406 134q250 0 393 -124t143 -349v-8h-170v8q0 153 -97.5 239.5t-268.5 86.5q-181 0 -282 -96.5t-101 -270.5v-446q0 -174 101 -270.5t280 -96.5q172 0 270 86.5t98 241.5v6h170v-6q0 -225 -143.5 -350t-394.5 -125q-258 0 -404.5 134.5 t-146.5 379.5zM504 -184l24 92q154 21 244 -19t90 -139q0 -100 -90.5 -140t-243.5 -18l-24 95q106 -14 163.5 -0.5t57.5 65.5q0 51 -57.5 64.5t-163.5 -0.5z" />
<glyph unicode="&#xc8;" horiz-adv-x="1150" d="M143 0v1434h926v-148h-756v-493h654v-148h-654v-498h756v-147h-926zM332 1812h176l186 -296h-137z" />
<glyph unicode="&#xc9;" horiz-adv-x="1150" d="M143 0v1434h926v-148h-756v-493h654v-148h-654v-498h756v-147h-926zM455 1516l188 296h176l-225 -296h-139z" />
<glyph unicode="&#xca;" horiz-adv-x="1150" d="M143 0v1434h926v-148h-756v-493h654v-148h-654v-498h756v-147h-926zM256 1516l231 296h177l231 -296h-150l-172 202l-172 -202h-145z" />
<glyph unicode="&#xcb;" horiz-adv-x="1150" d="M143 0v1434h926v-148h-756v-493h654v-148h-654v-498h756v-147h-926zM264 1552v220h139v-220h-139zM745 1552v220h140v-220h-140z" />
<glyph unicode="&#xcc;" horiz-adv-x="456" d="M-55 1812h176l186 -296h-137zM143 0v1434h170v-1434h-170z" />
<glyph unicode="&#xcd;" horiz-adv-x="456" d="M143 0v1434h170v-1434h-170zM147 1516l189 296h176l-225 -296h-140z" />
<glyph unicode="&#xce;" horiz-adv-x="456" d="M-90 1516l231 296h176l232 -296h-150l-172 202l-172 -202h-145zM143 0v1434h170v-1434h-170z" />
<glyph unicode="&#xcf;" horiz-adv-x="456" d="M-41 1552v220h139v-220h-139zM143 0v1434h170v-1434h-170zM358 1552v220h140v-220h-140z" />
<glyph unicode="&#xd0;" horiz-adv-x="1345" d="M0 659v117h143v658h516q259 0 406 -132t147 -374v-420q0 -244 -147.5 -376t-409.5 -132h-512v659h-143zM313 147h342q183 0 285 95t102 266v420q0 171 -101 264.5t-282 93.5h-346v-510h305v-117h-305v-512z" />
<glyph unicode="&#xd1;" horiz-adv-x="1355" d="M143 0v1434h160l739 -1123v1123h170v-1434h-159l-740 1124v-1124h-170zM301 1604q58 112 112 157t113 45q41 0 89 -24t83.5 -52.5t74 -52.5t63.5 -24q51 0 129 137l88 -53q-101 -203 -222 -203q-42 0 -90.5 24t-83.5 52t-73 52t-62 24q-30 0 -60 -31t-71 -105z" />
<glyph unicode="&#xd2;" horiz-adv-x="1355" d="M123 494v446q0 247 147.5 380.5t409.5 133.5q259 0 406 -134t147 -380v-446q0 -246 -147.5 -380t-409.5 -134q-259 0 -406 134.5t-147 379.5zM293 494q0 -174 101 -270.5t282 -96.5q183 0 285 96.5t102 270.5v446q0 174 -101 270.5t-282 96.5q-183 0 -285 -96.5 t-102 -270.5v-446zM424 1812h176l186 -296h-137z" />
<glyph unicode="&#xd3;" horiz-adv-x="1355" d="M123 494v446q0 247 147.5 380.5t409.5 133.5q259 0 406 -134t147 -380v-446q0 -246 -147.5 -380t-409.5 -134q-259 0 -406 134.5t-147 379.5zM293 494q0 -174 101 -270.5t282 -96.5q183 0 285 96.5t102 270.5v446q0 174 -101 270.5t-282 96.5q-183 0 -285 -96.5 t-102 -270.5v-446zM547 1516l188 296h176l-225 -296h-139z" />
<glyph unicode="&#xd4;" horiz-adv-x="1355" d="M123 494v446q0 247 147.5 380.5t409.5 133.5q259 0 406 -134t147 -380v-446q0 -246 -147.5 -380t-409.5 -134q-259 0 -406 134.5t-147 379.5zM293 494q0 -174 101 -270.5t282 -96.5q183 0 285 96.5t102 270.5v446q0 174 -101 270.5t-282 96.5q-183 0 -285 -96.5 t-102 -270.5v-446zM348 1516l232 296h176l231 -296h-149l-172 202l-172 -202h-146z" />
<glyph unicode="&#xd5;" horiz-adv-x="1355" d="M123 494v446q0 247 147.5 380.5t409.5 133.5q259 0 406 -134t147 -380v-446q0 -246 -147.5 -380t-409.5 -134q-259 0 -406 134.5t-147 379.5zM293 494q0 -174 101 -270.5t282 -96.5q183 0 285 96.5t102 270.5v446q0 174 -101 270.5t-282 96.5q-183 0 -285 -96.5 t-102 -270.5v-446zM301 1604q58 112 112 157t113 45q41 0 89 -24t83.5 -52.5t74 -52.5t63.5 -24q51 0 129 137l88 -53q-101 -203 -222 -203q-42 0 -90.5 24t-83.5 52t-73 52t-62 24q-30 0 -60 -31t-71 -105z" />
<glyph unicode="&#xd6;" horiz-adv-x="1355" d="M123 494v446q0 247 147.5 380.5t409.5 133.5q259 0 406 -134t147 -380v-446q0 -246 -147.5 -380t-409.5 -134q-259 0 -406 134.5t-147 379.5zM293 494q0 -174 101 -270.5t282 -96.5q183 0 285 96.5t102 270.5v446q0 174 -101 270.5t-282 96.5q-183 0 -285 -96.5 t-102 -270.5v-446zM356 1552v220h140v-220h-140zM838 1552v220h139v-220h-139z" />
<glyph unicode="&#xd7;" horiz-adv-x="1048" d="M96 393l328 328l-320 321l97 97l321 -322l330 330l98 -96l-332 -332l324 -322l-96 -96l-324 322l-327 -326z" />
<glyph unicode="&#xd8;" horiz-adv-x="1355" d="M121 -121l139 242q-137 137 -137 373v446q0 247 147.5 380.5t409.5 133.5q181 0 311 -68l133 232l109 -64l-139 -241q139 -139 139 -373v-446q0 -246 -147.5 -380t-409.5 -134q-186 0 -314 67l-133 -231zM293 494q0 -130 57 -218l561 973q-96 58 -231 58 q-183 0 -285 -96.5t-102 -270.5v-446zM442 184q89 -57 234 -57q183 0 285 96.5t102 270.5v446q0 133 -59 219z" />
<glyph unicode="&#xd9;" horiz-adv-x="1345" d="M139 475v959h168v-959q0 -165 97 -256.5t268 -91.5q172 0 269 91.5t97 256.5v959h168v-959q0 -237 -141.5 -366t-392.5 -129q-250 0 -391.5 129t-141.5 366zM430 1812h176l187 -296h-138z" />
<glyph unicode="&#xda;" horiz-adv-x="1345" d="M139 475v959h168v-959q0 -165 97 -256.5t268 -91.5q172 0 269 91.5t97 256.5v959h168v-959q0 -237 -141.5 -366t-392.5 -129q-250 0 -391.5 129t-141.5 366zM551 1516l188 296h176l-225 -296h-139z" />
<glyph unicode="&#xdb;" horiz-adv-x="1345" d="M139 475v959h168v-959q0 -165 97 -256.5t268 -91.5q172 0 269 91.5t97 256.5v959h168v-959q0 -237 -141.5 -366t-392.5 -129q-250 0 -391.5 129t-141.5 366zM352 1516l232 296h176l231 -296h-149l-172 202l-172 -202h-146z" />
<glyph unicode="&#xdc;" horiz-adv-x="1345" d="M139 475v959h168v-959q0 -165 97 -256.5t268 -91.5q172 0 269 91.5t97 256.5v959h168v-959q0 -237 -141.5 -366t-392.5 -129q-250 0 -391.5 129t-141.5 366zM362 1552v220h140v-220h-140zM844 1552v220h139v-220h-139z" />
<glyph unicode="&#xdd;" horiz-adv-x="1232" d="M-2 1434h203l417 -715l422 715h193l-533 -885v-549h-168v549zM496 1516l188 296h176l-225 -296h-139z" />
<glyph unicode="&#xde;" horiz-adv-x="1202" d="M143 0v1434h170v-271h369q217 0 338 -110.5t121 -335.5q0 -224 -121.5 -335.5t-337.5 -111.5h-369v-270h-170zM313 418h365q137 0 213 73.5t76 225.5q0 153 -76.5 226t-212.5 73h-365v-598z" />
<glyph unicode="&#xdf;" horiz-adv-x="1302" d="M143 0v1126q0 187 137.5 298.5t362.5 111.5q223 0 357.5 -103.5t134.5 -275.5q0 -114 -56 -199t-157 -131q137 -50 212.5 -158.5t75.5 -267.5q0 -200 -109.5 -310.5t-297.5 -110.5q-175 0 -268 96.5t-93 259.5v16h148v-6q0 -105 59.5 -167t151.5 -62q120 0 186 78.5 t66 216.5q0 158 -102.5 247t-276.5 91h-39v137h20q145 5 232.5 73t87.5 183q0 117 -89.5 186.5t-242.5 69.5t-246.5 -78t-93.5 -209v-1112h-160z" />
<glyph unicode="&#xe0;" horiz-adv-x="1083" d="M82 295q0 157 102.5 236t284.5 79q213 0 317 -104v201q0 112 -65.5 169.5t-183.5 57.5q-123 0 -183.5 -48.5t-60.5 -154.5h-160q0 167 104 250.5t300 83.5q191 0 299 -93.5t108 -275.5v-696h-123l-18 111q-104 -131 -336 -131q-180 0 -282.5 79t-102.5 236zM242 301 q0 -184 266 -184q127 0 202.5 47.5t75.5 136.5q0 87 -76 134.5t-202 47.5q-266 0 -266 -182zM270 1516h166l207 -328h-127z" />
<glyph unicode="&#xe1;" horiz-adv-x="1083" d="M82 295q0 157 102.5 236t284.5 79q213 0 317 -104v201q0 112 -65.5 169.5t-183.5 57.5q-123 0 -183.5 -48.5t-60.5 -154.5h-160q0 167 104 250.5t300 83.5q191 0 299 -93.5t108 -275.5v-696h-123l-18 111q-104 -131 -336 -131q-180 0 -282.5 79t-102.5 236zM242 301 q0 -184 266 -184q127 0 202.5 47.5t75.5 136.5q0 87 -76 134.5t-202 47.5q-266 0 -266 -182zM434 1188l207 328h168l-246 -328h-129z" />
<glyph unicode="&#xe2;" horiz-adv-x="1083" d="M82 295q0 157 102.5 236t284.5 79q213 0 317 -104v201q0 112 -65.5 169.5t-183.5 57.5q-123 0 -183.5 -48.5t-60.5 -154.5h-160q0 167 104 250.5t300 83.5q191 0 299 -93.5t108 -275.5v-696h-123l-18 111q-104 -131 -336 -131q-180 0 -282.5 79t-102.5 236zM240 1188 l221 328h155l222 -328h-148l-153 217l-154 -217h-143zM242 301q0 -184 266 -184q127 0 202.5 47.5t75.5 136.5q0 87 -76 134.5t-202 47.5q-266 0 -266 -182z" />
<glyph unicode="&#xe3;" horiz-adv-x="1083" d="M82 295q0 157 102.5 236t284.5 79q213 0 317 -104v201q0 112 -65.5 169.5t-183.5 57.5q-123 0 -183.5 -48.5t-60.5 -154.5h-160q0 167 104 250.5t300 83.5q191 0 299 -93.5t108 -275.5v-696h-123l-18 111q-104 -131 -336 -131q-180 0 -282.5 79t-102.5 236zM190 1307 q59 113 110.5 157.5t109.5 44.5q42 0 84.5 -24t70.5 -52.5t59 -52.5t54 -24q26 0 54 31t71 106l88 -53q-57 -114 -109 -158.5t-110 -44.5q-34 0 -67.5 15.5t-60 38t-50.5 45t-47.5 38t-43.5 15.5q-25 0 -53 -31t-69 -105zM242 301q0 -184 266 -184q127 0 202.5 47.5 t75.5 136.5q0 87 -76 134.5t-202 47.5q-266 0 -266 -182z" />
<glyph unicode="&#xe4;" horiz-adv-x="1083" d="M82 295q0 157 102.5 236t284.5 79q213 0 317 -104v201q0 112 -65.5 169.5t-183.5 57.5q-123 0 -183.5 -48.5t-60.5 -154.5h-160q0 167 104 250.5t300 83.5q191 0 299 -93.5t108 -275.5v-696h-123l-18 111q-104 -131 -336 -131q-180 0 -282.5 79t-102.5 236zM242 301 q0 -184 266 -184q127 0 202.5 47.5t75.5 136.5q0 87 -76 134.5t-202 47.5q-266 0 -266 -182zM258 1239v221h139v-221h-139zM678 1239v221h139v-221h-139z" />
<glyph unicode="&#xe5;" horiz-adv-x="1083" d="M82 295q0 157 102.5 236t284.5 79q213 0 317 -104v201q0 112 -65.5 169.5t-183.5 57.5q-123 0 -183.5 -48.5t-60.5 -154.5h-160q0 167 104 250.5t300 83.5q191 0 299 -93.5t108 -275.5v-696h-123l-18 111q-104 -131 -336 -131q-180 0 -282.5 79t-102.5 236zM242 301 q0 -184 266 -184q127 0 202.5 47.5t75.5 136.5q0 87 -76 134.5t-202 47.5q-266 0 -266 -182zM330 1339q0 88 57.5 142.5t149.5 54.5t150 -54.5t58 -142.5t-58 -142t-150 -54t-149.5 54t-57.5 142zM432 1339q0 -53 28 -82.5t77 -29.5t76.5 29.5t27.5 82.5t-27.5 83t-76.5 30 t-77 -30t-28 -83z" />
<glyph unicode="&#xe6;" horiz-adv-x="1765" d="M82 295q0 157 102 236t285 79q211 0 317 -100v197q0 112 -65.5 169.5t-183.5 57.5q-123 0 -183.5 -48.5t-60.5 -154.5h-160q0 167 104 250.5t300 83.5q251 0 335 -170q102 170 361 170q192 0 304 -101t112 -290v-197h-705v-112q0 -118 73.5 -183t203.5 -65 q125 0 193.5 56.5t74.5 150.5h158q-9 -163 -118.5 -253.5t-291.5 -90.5q-129 0 -223.5 45t-145.5 131q-99 -176 -391 -176q-186 0 -290.5 79t-104.5 236zM242 301q0 -184 266 -184q127 0 202.5 47.5t75.5 136.5q0 87 -76 134.5t-202 47.5q-266 0 -266 -182zM944 604h545v80 q0 119 -72 181.5t-198 62.5q-128 0 -201.5 -62.5t-73.5 -181.5v-80z" />
<glyph unicode="&#xe7;" horiz-adv-x="1077" d="M119 375v295q0 190 115.5 292.5t320.5 102.5q198 0 312 -97.5t114 -273.5v-2h-160v13q0 104 -71 163.5t-195 59.5q-132 0 -205.5 -64.5t-73.5 -183.5v-315q0 -118 73.5 -183t203.5 -65q126 0 197 60t71 165v12h160v-2q0 -176 -114.5 -274t-313.5 -98q-203 0 -318.5 103 t-115.5 292zM385 -184l25 92q153 21 243 -19t90 -139q0 -100 -90 -140t-243 -18l-25 95q106 -14 163.5 -0.5t57.5 65.5q0 51 -57.5 64.5t-163.5 -0.5z" />
<glyph unicode="&#xe8;" d="M119 375v299q0 190 115.5 290.5t316.5 100.5q198 0 314 -101t116 -290v-197h-705v-112q0 -116 72.5 -182t204.5 -66q125 0 193.5 56.5t74.5 150.5h158q-9 -164 -121 -254t-305 -90q-202 0 -318 103t-116 292zM276 604h545v80q0 119 -72 181.5t-198 62.5 q-128 0 -201.5 -62.5t-73.5 -181.5v-80zM281 1516h165l207 -328h-127z" />
<glyph unicode="&#xe9;" d="M119 375v299q0 190 115.5 290.5t316.5 100.5q198 0 314 -101t116 -290v-197h-705v-112q0 -116 72.5 -182t204.5 -66q125 0 193.5 56.5t74.5 150.5h158q-9 -164 -121 -254t-305 -90q-202 0 -318 103t-116 292zM276 604h545v80q0 119 -72 181.5t-198 62.5 q-128 0 -201.5 -62.5t-73.5 -181.5v-80zM444 1188l207 328h168l-246 -328h-129z" />
<glyph unicode="&#xea;" d="M119 375v299q0 190 115.5 290.5t316.5 100.5q198 0 314 -101t116 -290v-197h-705v-112q0 -116 72.5 -182t204.5 -66q125 0 193.5 56.5t74.5 150.5h158q-9 -164 -121 -254t-305 -90q-202 0 -318 103t-116 292zM250 1188l221 328h156l221 -328h-148l-153 217l-154 -217 h-143zM276 604h545v80q0 119 -72 181.5t-198 62.5q-128 0 -201.5 -62.5t-73.5 -181.5v-80z" />
<glyph unicode="&#xeb;" d="M119 375v299q0 190 115.5 290.5t316.5 100.5q198 0 314 -101t116 -290v-197h-705v-112q0 -116 72.5 -182t204.5 -66q125 0 193.5 56.5t74.5 150.5h158q-9 -164 -121 -254t-305 -90q-202 0 -318 103t-116 292zM268 1239v221h140v-221h-140zM276 604h545v80 q0 119 -72 181.5t-198 62.5q-128 0 -201.5 -62.5t-73.5 -181.5v-80zM688 1239v221h139v-221h-139z" />
<glyph unicode="&#xec;" horiz-adv-x="446" d="M-66 1516h166l207 -328h-127zM143 0v1044h160v-1044h-160z" />
<glyph unicode="&#xed;" horiz-adv-x="446" d="M139 1188l207 328h168l-246 -328h-129zM143 0v1044h160v-1044h-160z" />
<glyph unicode="&#xee;" horiz-adv-x="446" d="M-74 1188l221 328h156l221 -328h-147l-154 217l-153 -217h-144zM143 0v1044h160v-1044h-160z" />
<glyph unicode="&#xef;" horiz-adv-x="446" d="M-14 1239v221h139v-221h-139zM143 0v1044h160v-1044h-160zM324 1239v221h139v-221h-139z" />
<glyph unicode="&#xf0;" d="M119 373v219q0 188 105.5 289.5t281.5 101.5q150 0 256 -70q-65 168 -195 295l-260 -116l-39 98l211 94q-101 77 -241 133l49 119q189 -70 331 -188l244 110l39 -100l-201 -90q137 -143 209 -335.5t72 -418.5v-141q0 -191 -116 -292t-316 -101t-315 101t-115 292z M276 362q0 -120 73 -182.5t200 -62.5q128 0 200 62.5t72 182.5v213q0 134 -68.5 202.5t-201.5 68.5q-128 0 -201.5 -62.5t-73.5 -181.5v-240z" />
<glyph unicode="&#xf1;" horiz-adv-x="1144" d="M143 0v1044h123l21 -118q106 139 327 139q185 0 288.5 -96t103.5 -285v-684h-158v694q0 118 -69.5 176t-196.5 58t-203 -63t-76 -181v-684h-160zM223 1307q59 113 110 157.5t109 44.5q42 0 84.5 -24t70.5 -52.5t59.5 -52.5t54.5 -24q26 0 54 31t71 106l88 -53 q-57 -114 -109 -158.5t-110 -44.5q-34 0 -67.5 15.5t-60 38t-50.5 45t-47.5 38t-43.5 15.5q-25 0 -53.5 -31t-69.5 -105z" />
<glyph unicode="&#xf2;" d="M119 373v301q0 190 115.5 290.5t316.5 100.5q198 0 314 -101t116 -290v-301q0 -191 -116 -292t-316 -101t-315 101t-115 292zM276 362q0 -120 73 -182.5t200 -62.5q128 0 200 62.5t72 182.5v322q0 119 -72 181.5t-198 62.5q-128 0 -201.5 -62.5t-73.5 -181.5v-322z M281 1516h165l207 -328h-127z" />
<glyph unicode="&#xf3;" d="M119 373v301q0 190 115.5 290.5t316.5 100.5q198 0 314 -101t116 -290v-301q0 -191 -116 -292t-316 -101t-315 101t-115 292zM276 362q0 -120 73 -182.5t200 -62.5q128 0 200 62.5t72 182.5v322q0 119 -72 181.5t-198 62.5q-128 0 -201.5 -62.5t-73.5 -181.5v-322z M444 1188l207 328h168l-246 -328h-129z" />
<glyph unicode="&#xf4;" d="M119 373v301q0 190 115.5 290.5t316.5 100.5q198 0 314 -101t116 -290v-301q0 -191 -116 -292t-316 -101t-315 101t-115 292zM250 1188l221 328h156l221 -328h-148l-153 217l-154 -217h-143zM276 362q0 -120 73 -182.5t200 -62.5q128 0 200 62.5t72 182.5v322 q0 119 -72 181.5t-198 62.5q-128 0 -201.5 -62.5t-73.5 -181.5v-322z" />
<glyph unicode="&#xf5;" d="M119 373v301q0 190 115.5 290.5t316.5 100.5q198 0 314 -101t116 -290v-301q0 -191 -116 -292t-316 -101t-315 101t-115 292zM199 1307q59 113 110 157.5t109 44.5q42 0 84.5 -24t70.5 -52.5t59 -52.5t54 -24q26 0 54 31t71 106l88 -53q-57 -114 -109 -158.5t-110 -44.5 q-34 0 -67.5 15.5t-60 38t-50 45t-47 38t-43.5 15.5q-25 0 -53.5 -31t-69.5 -105zM276 362q0 -120 73 -182.5t200 -62.5q128 0 200 62.5t72 182.5v322q0 119 -72 181.5t-198 62.5q-128 0 -201.5 -62.5t-73.5 -181.5v-322z" />
<glyph unicode="&#xf6;" d="M119 373v301q0 190 115.5 290.5t316.5 100.5q198 0 314 -101t116 -290v-301q0 -191 -116 -292t-316 -101t-315 101t-115 292zM268 1239v221h140v-221h-140zM276 362q0 -120 73 -182.5t200 -62.5q128 0 200 62.5t72 182.5v322q0 119 -72 181.5t-198 62.5 q-128 0 -201.5 -62.5t-73.5 -181.5v-322zM688 1239v221h139v-221h-139z" />
<glyph unicode="&#xf7;" horiz-adv-x="1048" d="M61 649v137h926v-137h-926zM436 135v252h178v-252h-178zM436 1051v249h178v-249h-178z" />
<glyph unicode="&#xf8;" d="M119 373v301q0 190 115.5 290.5t316.5 100.5q127 0 225 -45l96 168l93 -53l-99 -172q115 -103 115 -289v-301q0 -191 -116 -292t-316 -101q-125 0 -225 43l-97 -166l-92 53l98 170q-114 102 -114 293zM276 362q0 -88 37 -143l389 676q-59 33 -151 33q-128 0 -201.5 -62.5 t-73.5 -181.5v-322zM395 147q61 -30 154 -30q128 0 200 62.5t72 182.5v322q0 84 -37 139z" />
<glyph unicode="&#xf9;" horiz-adv-x="1144" d="M139 362v682h160v-692q0 -120 69.5 -177.5t196.5 -57.5t203 63t76 182v682h157v-1044h-122l-21 119q-106 -139 -328 -139q-185 0 -288 96t-103 286zM342 1516h166l207 -328h-127z" />
<glyph unicode="&#xfa;" horiz-adv-x="1144" d="M139 362v682h160v-692q0 -120 69.5 -177.5t196.5 -57.5t203 63t76 182v682h157v-1044h-122l-21 119q-106 -139 -328 -139q-185 0 -288 96t-103 286zM424 1188l207 328h168l-246 -328h-129z" />
<glyph unicode="&#xfb;" horiz-adv-x="1144" d="M139 362v682h160v-692q0 -120 69.5 -177.5t196.5 -57.5t203 63t76 182v682h157v-1044h-122l-21 119q-106 -139 -328 -139q-185 0 -288 96t-103 286zM270 1188l222 328h155l221 -328h-147l-154 217l-153 -217h-144z" />
<glyph unicode="&#xfc;" horiz-adv-x="1144" d="M139 362v682h160v-692q0 -120 69.5 -177.5t196.5 -57.5t203 63t76 182v682h157v-1044h-122l-21 119q-106 -139 -328 -139q-185 0 -288 96t-103 286zM289 1239v221h139v-221h-139zM709 1239v221h139v-221h-139z" />
<glyph unicode="&#xfd;" horiz-adv-x="1087" d="M41 1044h170l338 -868l338 868h160l-570 -1454h-170l162 410h-20zM438 1188l207 328h168l-246 -328h-129z" />
<glyph unicode="&#xfe;" horiz-adv-x="1124" d="M143 -410v1926h160v-576q107 125 311 125q183 0 287.5 -101.5t104.5 -289.5v-301q0 -188 -105 -290.5t-287 -102.5q-208 0 -311 118v-508h-160zM303 373q0 -121 74.5 -188.5t202.5 -67.5q126 0 197 64t71 181v322q0 117 -70.5 180.5t-195.5 63.5q-129 0 -204 -67 t-75 -187v-301z" />
<glyph unicode="&#xff;" horiz-adv-x="1087" d="M41 1044h170l338 -868l338 868h160l-570 -1454h-170l162 410h-20zM262 1239v221h139v-221h-139zM682 1239v221h139v-221h-139z" />
<glyph unicode="&#x152;" horiz-adv-x="2091" d="M123 494v446q0 246 146 380t399 134q254 0 395 -147v127h926v-148h-756v-493h653v-148h-653v-498h756v-147h-926v127q-141 -147 -397 -147q-251 0 -397 135t-146 379zM293 494q0 -174 101 -270.5t282 -96.5q183 0 285 96.5t102 270.5v446q0 174 -101 270.5t-282 96.5 q-183 0 -285 -96.5t-102 -270.5v-446z" />
<glyph unicode="&#x153;" horiz-adv-x="1802" d="M119 373v301q0 190 114 290.5t310 100.5q249 0 358 -160q106 160 361 160q195 0 308 -100.5t113 -290.5v-197h-702v-112q0 -117 72 -182.5t204 -65.5q125 0 193 56.5t74 150.5h159q-10 -163 -120.5 -253.5t-296.5 -90.5q-255 0 -365 159q-105 -159 -360 -159 q-195 0 -308.5 101t-113.5 292zM276 362q0 -120 73 -182.5t200 -62.5q128 0 200 62.5t72 182.5v322q0 119 -72 181.5t-198 62.5q-128 0 -201.5 -62.5t-73.5 -181.5v-322zM981 604h545v80q0 119 -73.5 181.5t-199.5 62.5t-199 -62.5t-73 -181.5v-80z" />
<glyph unicode="&#x178;" horiz-adv-x="1232" d="M-2 1434h203l417 -715l422 715h193l-533 -885v-549h-168v549zM305 1552v220h139v-220h-139zM786 1552v220h140v-220h-140z" />
<glyph unicode="&#x2c6;" horiz-adv-x="679" d="M41 1188l221 328h156l221 -328h-147l-154 217l-154 -217h-143z" />
<glyph unicode="&#x2dc;" horiz-adv-x="782" d="M41 1307q59 113 110 157.5t109 44.5q42 0 84.5 -24t70.5 -52.5t59 -52.5t54 -24q26 0 54 31t71 106l88 -53q-57 -114 -109 -158.5t-110 -44.5q-34 0 -67.5 15.5t-60 38t-50 45t-47 38t-43.5 15.5q-25 0 -53.5 -31t-69.5 -105z" />
<glyph unicode="&#x2000;" horiz-adv-x="932" />
<glyph unicode="&#x2001;" horiz-adv-x="1864" />
<glyph unicode="&#x2002;" horiz-adv-x="932" />
<glyph unicode="&#x2003;" horiz-adv-x="1864" />
<glyph unicode="&#x2004;" horiz-adv-x="621" />
<glyph unicode="&#x2005;" horiz-adv-x="466" />
<glyph unicode="&#x2006;" horiz-adv-x="310" />
<glyph unicode="&#x2007;" horiz-adv-x="310" />
<glyph unicode="&#x2008;" horiz-adv-x="233" />
<glyph unicode="&#x2009;" horiz-adv-x="372" />
<glyph unicode="&#x200a;" horiz-adv-x="103" />
<glyph unicode="&#x2010;" horiz-adv-x="530" d="M61 455v137h408v-137h-408z" />
<glyph unicode="&#x2011;" horiz-adv-x="530" d="M61 455v137h408v-137h-408z" />
<glyph unicode="&#x2012;" horiz-adv-x="530" d="M61 455v137h408v-137h-408z" />
<glyph unicode="&#x2013;" horiz-adv-x="1044" d="M10 455v137h1024v-137h-1024z" />
<glyph unicode="&#x2014;" horiz-adv-x="2068" d="M10 455v137h2048v-137h-2048z" />
<glyph unicode="&#x2018;" horiz-adv-x="466" d="M143 1147l62 487h119v-487h-181z" />
<glyph unicode="&#x2019;" horiz-adv-x="466" d="M143 1147v487h181l-62 -487h-119z" />
<glyph unicode="&#x201a;" horiz-adv-x="466" d="M143 -236v488h181l-62 -488h-119z" />
<glyph unicode="&#x201c;" horiz-adv-x="747" d="M143 1147l62 487h119v-487h-181zM426 1147l61 487h117v-487h-178z" />
<glyph unicode="&#x201d;" horiz-adv-x="747" d="M143 1147v487h181l-62 -487h-119zM426 1147v487h178l-61 -487h-117z" />
<glyph unicode="&#x201e;" horiz-adv-x="747" d="M143 -236v488h181l-62 -488h-119zM426 -236v488h178l-61 -488h-117z" />
<glyph unicode="&#x2022;" horiz-adv-x="622" d="M72 717q0 106 66.5 172.5t172.5 66.5t173 -66.5t67 -172.5t-67 -173t-173 -67t-172.5 67t-66.5 173z" />
<glyph unicode="&#x2026;" horiz-adv-x="1767" d="M143 0v252h181v-252h-181zM795 0v252h178v-252h-178zM1444 0v252h180v-252h-180z" />
<glyph unicode="&#x202f;" horiz-adv-x="372" />
<glyph unicode="&#x2039;" horiz-adv-x="526" d="M41 463v139l424 328v-162l-287 -236l287 -231v-166z" />
<glyph unicode="&#x203a;" horiz-adv-x="526" d="M51 135v164l289 233l-289 234v164l424 -328v-139z" />
<glyph unicode="&#x205f;" horiz-adv-x="466" />
<glyph unicode="&#x20ac;" horiz-adv-x="1404" d="M61 653v127h144v160q0 246 146 380t405 134q251 0 393.5 -124.5t142.5 -350.5v-6h-168v6q0 155 -98 241.5t-270 86.5q-181 0 -282 -96.5t-101 -270.5v-160h475v-127h-475v-159q0 -173 103 -270t278 -97q174 0 272 86.5t98 239.5v8h168v-8q0 -223 -143 -348t-395 -125 q-258 0 -403.5 133.5t-145.5 380.5v159h-144z" />
<glyph unicode="&#x2122;" horiz-adv-x="1208" d="M51 1335v99h469v-99h-178v-438h-111v438h-180zM578 897v537h102l158 -271l155 271h103v-537h-105v354l-153 -266l-154 266v-354h-106z" />
<glyph unicode="&#x25fc;" horiz-adv-x="1044" d="M0 0v1044h1044v-1044h-1044z" />
</font>
</defs>
</svg>
